<svg xmlns="http://www.w3.org/2000/svg" width="1920" height="auto" xmlns:xlink="http://www.w3.org/1999/xlink" viewBox="0 0 1920 1513">
  <defs>
    <style>
      .cls-1 {
        clip-path: url(#clip-Web_1920_1);
      }

      .cls-2, .cls-4 {
        fill: rgba(255,255,255,0);
      }

      .cls-2, .cls-3 {
        stroke: #95989a;
      }

      .cls-3 {
        fill: none;
      }
    </style>
    <clipPath id="clip-Web_1920_1">
      <rect width="1920" height="1513"/>
    </clipPath>
  </defs>
  <g id="Web_1920_1" data-name="Web 1920 – 1" class="cls-1">
    <rect class="cls-4" width="1920" height="1513"/>
    <g id="rectangle" transform="translate(-119.687 358.426) rotate(-40)">
      <path id="Path_1" data-name="Path 1" class="cls-2" d="M131.041.5H393.435L261.582,231.818H.5Z" transform="translate(181.799 233.658)"/>
      <path id="Path_2" data-name="Path 2" class="cls-2" d="M131.041.5H393.435L261.582,231.818H.5Z" transform="translate(149 186)"/>
      <line id="Line_1" data-name="Line 1" class="cls-3" x2="32.799" y2="47.658" transform="translate(149.5 417.818)"/>
      <line id="Line_2" data-name="Line 2" class="cls-3" x2="32.799" y2="47.658" transform="translate(280.697 186.5)"/>
      <line id="Line_3" data-name="Line 3" class="cls-3" x2="32.799" y2="47.658" transform="translate(543.091 186.5)"/>
      <line id="Line_4" data-name="Line 4" class="cls-3" x2="34.111" y2="47.658" transform="translate(409.27 417.818)"/>
    </g>
    <g id="rectangle-2" data-name="rectangle" transform="translate(674.387 937.509) rotate(-139)">
      <path id="Path_1-2" data-name="Path 1" class="cls-2" d="M62.273.5H186.439L124.046,89.931H.5Z" transform="translate(164.521 204.426)"/>
      <path id="Path_2-2" data-name="Path 2" class="cls-2" d="M62.273.5H186.439L124.046,89.931H.5Z" transform="translate(149 186)"/>
      <line id="Line_1-2" data-name="Line 1" class="cls-3" x2="15.521" y2="18.426" transform="translate(149.5 275.931)"/>
      <line id="Line_2-2" data-name="Line 2" class="cls-3" x2="15.521" y2="18.426" transform="translate(211.583 186.5)"/>
      <line id="Line_3-2" data-name="Line 3" class="cls-3" x2="15.521" y2="18.426" transform="translate(335.75 186.5)"/>
      <line id="Line_4-2" data-name="Line 4" class="cls-3" x2="16.142" y2="18.426" transform="translate(272.425 275.931)"/>
    </g>
    <g id="rectangle-3" data-name="rectangle" transform="translate(1121.881 247.455) rotate(71)">
      <path id="Path_1-3" data-name="Path 1" class="cls-2" d="M95.589.5H286.723L190.678,173.119H.5Z" transform="translate(172.892 221.565)"/>
      <path id="Path_2-3" data-name="Path 2" class="cls-2" d="M95.589.5H286.723L190.678,173.119H.5Z" transform="translate(149 186)"/>
      <line id="Line_1-3" data-name="Line 1" class="cls-3" x2="23.892" y2="35.565" transform="translate(149.5 359.119)"/>
      <line id="Line_2-3" data-name="Line 2" class="cls-3" x2="23.892" y2="35.565" transform="translate(245.067 186.5)"/>
      <line id="Line_3-3" data-name="Line 3" class="cls-3" x2="23.892" y2="35.565" transform="translate(436.201 186.5)"/>
      <line id="Line_4-3" data-name="Line 4" class="cls-3" x2="24.847" y2="35.565" transform="translate(338.722 359.119)"/>
    </g>
    <g id="rectangle-4" data-name="rectangle" transform="matrix(-0.94, -0.342, 0.342, -0.94, 1269.989, 934.995)">
      <path id="Path_1-4" data-name="Path 1" class="cls-2" d="M20.818.5H61.657L41.135,37.383H.5Z" transform="translate(154.105 193.599)"/>
      <path id="Path_2-4" data-name="Path 2" class="cls-2" d="M20.818.5H61.657L41.135,37.383H.5Z" transform="translate(149 186)"/>
      <line id="Line_1-4" data-name="Line 1" class="cls-3" x2="5.105" y2="7.599" transform="translate(149.5 223.383)"/>
      <line id="Line_2-4" data-name="Line 2" class="cls-3" x2="5.105" y2="7.599" transform="translate(169.92 186.5)"/>
      <line id="Line_3-4" data-name="Line 3" class="cls-3" x2="5.105" y2="7.599" transform="translate(210.759 186.5)"/>
      <line id="Line_4-4" data-name="Line 4" class="cls-3" x2="5.309" y2="7.599" transform="translate(189.931 223.383)"/>
    </g>
    <g id="rectangle-5" data-name="rectangle" transform="translate(1802.256 758.123) rotate(-180)">
      <path id="Path_1-5" data-name="Path 1" class="cls-2" d="M158.213.5H475.225l-159.3,286.3H.5Z" transform="translate(188.626 244.987)"/>
      <path id="Path_2-5" data-name="Path 2" class="cls-2" d="M158.213.5H475.225l-159.3,286.3H.5Z" transform="translate(149 186)"/>
      <line id="Line_1-5" data-name="Line 1" class="cls-3" x2="39.626" y2="58.987" transform="translate(149.5 472.804)"/>
      <line id="Line_2-5" data-name="Line 2" class="cls-3" x2="39.626" y2="58.987" transform="translate(308.006 186.5)"/>
      <line id="Line_3-5" data-name="Line 3" class="cls-3" x2="39.626" y2="58.987" transform="translate(625.018 186.5)"/>
      <line id="Line_4-5" data-name="Line 4" class="cls-3" x2="41.212" y2="58.987" transform="translate(463.342 472.804)"/>
    </g>
    <g id="rectangle-6" data-name="rectangle" transform="translate(1915.682 128.871) rotate(71)">
      <path id="Path_1-6" data-name="Path 1" class="cls-2" d="M76.209.5H228.386L151.917,137.937H.5Z" transform="translate(168.022 214.316)"/>
      <path id="Path_2-6" data-name="Path 2" class="cls-2" d="M76.209.5H228.386L151.917,137.937H.5Z" transform="translate(149 186)"/>
      <line id="Line_1-6" data-name="Line 1" class="cls-3" x2="19.022" y2="28.316" transform="translate(149.5 323.937)"/>
      <line id="Line_2-6" data-name="Line 2" class="cls-3" x2="19.022" y2="28.316" transform="translate(225.589 186.5)"/>
      <line id="Line_3-6" data-name="Line 3" class="cls-3" x2="19.022" y2="28.316" transform="translate(377.767 186.5)"/>
      <line id="Line_4-6" data-name="Line 4" class="cls-3" x2="19.783" y2="28.316" transform="translate(300.156 323.937)"/>
    </g>
    <g id="rectangle-7" data-name="rectangle" transform="translate(1110.714 1513.243) rotate(-89)">
      <path id="Path_1-7" data-name="Path 1" class="cls-2" d="M220.863.5H663.8L441.226,400.534H.5Z" transform="translate(204.368 268.419)"/>
      <path id="Path_2-7" data-name="Path 2" class="cls-2" d="M220.863.5H663.8L441.226,400.534H.5Z" transform="translate(149 186)"/>
      <line id="Line_1-7" data-name="Line 1" class="cls-3" x2="55.368" y2="82.419" transform="translate(149.5 586.534)"/>
      <line id="Line_2-7" data-name="Line 2" class="cls-3" x2="55.368" y2="82.419" transform="translate(370.97 186.5)"/>
      <line id="Line_3-7" data-name="Line 3" class="cls-3" x2="55.368" y2="82.419" transform="translate(813.911 186.5)"/>
      <line id="Line_4-7" data-name="Line 4" class="cls-3" x2="57.582" y2="82.419" transform="translate(588.012 586.534)"/>
    </g>
    <g id="rectangle-8" data-name="rectangle" transform="translate(1778.219 364.844) rotate(71)">
      <path id="Path_1-8" data-name="Path 1" class="cls-2" d="M50.314.5H150.442L100.127,90.929H.5Z" transform="translate(161.516 204.631)"/>
      <path id="Path_2-8" data-name="Path 2" class="cls-2" d="M50.314.5H150.442L100.127,90.929H.5Z" transform="translate(149 186)"/>
      <line id="Line_1-8" data-name="Line 1" class="cls-3" x2="12.516" y2="18.631" transform="translate(149.5 276.929)"/>
      <line id="Line_2-8" data-name="Line 2" class="cls-3" x2="12.516" y2="18.631" transform="translate(199.564 186.5)"/>
      <line id="Line_3-8" data-name="Line 3" class="cls-3" x2="12.516" y2="18.631" transform="translate(299.692 186.5)"/>
      <line id="Line_4-8" data-name="Line 4" class="cls-3" x2="13.017" y2="18.631" transform="translate(248.627 276.929)"/>
    </g>
    <g id="rectangle-9" data-name="rectangle" transform="matrix(0.985, -0.174, 0.174, 0.985, 761.836, 702.208)">
      <path id="Path_1-9" data-name="Path 1" class="cls-2" d="M86.214.5H258.5L171.927,156.1H.5Z" transform="translate(170.536 218.058)"/>
      <path id="Path_2-9" data-name="Path 2" class="cls-2" d="M86.214.5H258.5L171.927,156.1H.5Z" transform="translate(149 186)"/>
      <line id="Line_1-9" data-name="Line 1" class="cls-3" x2="21.536" y2="32.058" transform="translate(149.5 342.1)"/>
      <line id="Line_2-9" data-name="Line 2" class="cls-3" x2="21.536" y2="32.058" transform="translate(235.644 186.5)"/>
      <line id="Line_3-9" data-name="Line 3" class="cls-3" x2="21.536" y2="32.058" transform="translate(407.933 186.5)"/>
      <line id="Line_4-9" data-name="Line 4" class="cls-3" x2="22.398" y2="32.058" transform="translate(320.066 342.1)"/>
    </g>
    <g id="rectangle-10" data-name="rectangle" transform="matrix(-0.643, 0.766, -0.766, -0.643, 1233.368, 812.575)">
      <path id="Path_1-10" data-name="Path 1" class="cls-2" d="M19.376.5H57.317L38.251,34.766H.5Z" transform="translate(153.743 193.06)"/>
      <path id="Path_2-10" data-name="Path 2" class="cls-2" d="M19.376.5H57.317L38.251,34.766H.5Z" transform="translate(149 186)"/>
      <line id="Line_1-10" data-name="Line 1" class="cls-3" x2="4.743" y2="7.06" transform="translate(149.5 220.766)"/>
      <line id="Line_2-10" data-name="Line 2" class="cls-3" x2="4.743" y2="7.06" transform="translate(168.47 186.5)"/>
      <line id="Line_3-10" data-name="Line 3" class="cls-3" x2="4.743" y2="7.06" transform="translate(206.411 186.5)"/>
      <line id="Line_4-10" data-name="Line 4" class="cls-3" x2="4.932" y2="7.06" transform="translate(187.062 220.766)"/>
    </g>
    <g id="rectangle-11" data-name="rectangle" transform="matrix(0.545, 0.839, -0.839, 0.545, 799.893, 434.698)">
      <path id="Path_1-11" data-name="Path 1" class="cls-2" d="M83.632.5h167.1L166.765,151.414H.5Z" transform="translate(169.888 217.093)"/>
      <path id="Path_2-11" data-name="Path 2" class="cls-2" d="M83.632.5h167.1L166.765,151.414H.5Z" transform="translate(149 186)"/>
      <line id="Line_1-11" data-name="Line 1" class="cls-3" x2="20.888" y2="31.093" transform="translate(149.5 337.414)"/>
      <line id="Line_2-11" data-name="Line 2" class="cls-3" x2="20.888" y2="31.093" transform="translate(233.05 186.5)"/>
      <line id="Line_3-11" data-name="Line 3" class="cls-3" x2="20.888" y2="31.093" transform="translate(400.151 186.5)"/>
      <line id="Line_4-11" data-name="Line 4" class="cls-3" x2="21.723" y2="31.093" transform="translate(314.93 337.414)"/>
    </g>
    <g id="rectangle-12" data-name="rectangle" transform="matrix(0.766, 0.643, -0.643, 0.766, 752.961, 688.882)">
      <path id="Path_1-12" data-name="Path 1" class="cls-2" d="M90.676.5H271.935L180.853,164.2H.5Z" transform="translate(171.657 219.727)"/>
      <path id="Path_2-12" data-name="Path 2" class="cls-2" d="M90.676.5H271.935L180.853,164.2H.5Z" transform="translate(149 186)"/>
      <line id="Line_1-12" data-name="Line 1" class="cls-3" x2="22.657" y2="33.727" transform="translate(149.5 350.201)"/>
      <line id="Line_2-12" data-name="Line 2" class="cls-3" x2="22.657" y2="33.727" transform="translate(240.129 186.5)"/>
      <line id="Line_3-12" data-name="Line 3" class="cls-3" x2="22.657" y2="33.727" transform="translate(421.388 186.5)"/>
      <line id="Line_4-12" data-name="Line 4" class="cls-3" x2="23.564" y2="33.727" transform="translate(328.946 350.201)"/>
    </g>
    <g id="rectangle-13" data-name="rectangle" transform="translate(350.672 776.644) rotate(-3)">
      <path id="Path_1-13" data-name="Path 1" class="cls-2" d="M33.424.5H99.6L66.349,60.269H.5Z" transform="translate(157.272 198.314)"/>
      <path id="Path_2-13" data-name="Path 2" class="cls-2" d="M33.424.5H99.6L66.349,60.269H.5Z" transform="translate(149 186)"/>
      <line id="Line_1-13" data-name="Line 1" class="cls-3" x2="8.272" y2="12.314" transform="translate(149.5 246.269)"/>
      <line id="Line_2-13" data-name="Line 2" class="cls-3" x2="8.272" y2="12.314" transform="translate(182.59 186.5)"/>
      <line id="Line_3-13" data-name="Line 3" class="cls-3" x2="8.272" y2="12.314" transform="translate(248.769 186.5)"/>
      <line id="Line_4-13" data-name="Line 4" class="cls-3" x2="8.603" y2="12.314" transform="translate(215.018 246.269)"/>
    </g>
    <g id="rectangle-14" data-name="rectangle" transform="matrix(0.174, 0.985, -0.985, 0.174, 628.448, 478.305)">
      <path id="Path_1-14" data-name="Path 1" class="cls-2" d="M68.813.5H206.126l-69,124.012H.5Z" transform="translate(166.164 211.55)"/>
      <path id="Path_2-14" data-name="Path 2" class="cls-2" d="M68.813.5H206.126l-69,124.012H.5Z" transform="translate(149 186)"/>
      <line id="Line_1-14" data-name="Line 1" class="cls-3" x2="17.164" y2="25.55" transform="translate(149.5 310.512)"/>
      <line id="Line_2-14" data-name="Line 2" class="cls-3" x2="17.164" y2="25.55" transform="translate(218.157 186.5)"/>
      <line id="Line_3-14" data-name="Line 3" class="cls-3" x2="17.164" y2="25.55" transform="translate(355.47 186.5)"/>
      <line id="Line_4-14" data-name="Line 4" class="cls-3" x2="17.851" y2="25.55" transform="translate(285.44 310.512)"/>
    </g>
    <g id="rectangle-15" data-name="rectangle" transform="translate(470.3 633.884) rotate(71)">
      <path id="Path_1-15" data-name="Path 1" class="cls-2" d="M110.479.5H331.542L220.458,200.149H.5Z" transform="translate(176.633 227.134)"/>
      <path id="Path_2-15" data-name="Path 2" class="cls-2" d="M110.479.5H331.542L220.458,200.149H.5Z" transform="translate(149 186)"/>
      <line id="Line_1-15" data-name="Line 1" class="cls-3" x2="27.633" y2="41.134" transform="translate(149.5 386.149)"/>
      <line id="Line_2-15" data-name="Line 2" class="cls-3" x2="27.633" y2="41.134" transform="translate(260.031 186.5)"/>
      <line id="Line_3-15" data-name="Line 3" class="cls-3" x2="27.633" y2="41.134" transform="translate(481.095 186.5)"/>
      <line id="Line_4-15" data-name="Line 4" class="cls-3" x2="28.738" y2="41.134" transform="translate(368.352 386.149)"/>
    </g>
    <g id="rectangle-16" data-name="rectangle" transform="matrix(0.819, 0.574, -0.574, 0.819, 184.475, 496.958)">
      <path id="Path_1-16" data-name="Path 1" class="cls-2" d="M27.872.5H82.89L55.243,50.189H.5Z" transform="translate(155.877 196.237)"/>
      <path id="Path_2-16" data-name="Path 2" class="cls-2" d="M27.872.5H82.89L55.243,50.189H.5Z" transform="translate(149 186)"/>
      <line id="Line_1-16" data-name="Line 1" class="cls-3" x2="6.877" y2="10.237" transform="translate(149.5 236.189)"/>
      <line id="Line_2-16" data-name="Line 2" class="cls-3" x2="6.877" y2="10.237" transform="translate(177.009 186.5)"/>
      <line id="Line_3-16" data-name="Line 3" class="cls-3" x2="6.877" y2="10.237" transform="translate(232.028 186.5)"/>
      <line id="Line_4-16" data-name="Line 4" class="cls-3" x2="7.152" y2="10.237" transform="translate(203.968 236.189)"/>
    </g>
    <g id="rectangle-17" data-name="rectangle" transform="matrix(0.545, 0.839, -0.839, 0.545, 1243.601, 837.174)">
      <path id="Path_1-17" data-name="Path 1" class="cls-2" d="M39.819.5h79.034L79.139,73.077H.5Z" transform="translate(158.879 200.953)"/>
      <path id="Path_2-17" data-name="Path 2" class="cls-2" d="M39.819.5h79.034L79.139,73.077H.5Z" transform="translate(149 186)"/>
      <line id="Line_1-17" data-name="Line 1" class="cls-3" x2="9.879" y2="14.953" transform="translate(149.5 259.077)"/>
      <line id="Line_2-17" data-name="Line 2" class="cls-3" x2="9.879" y2="14.953" transform="translate(189.017 186.5)"/>
      <line id="Line_3-17" data-name="Line 3" class="cls-3" x2="9.879" y2="14.953" transform="translate(268.051 186.5)"/>
      <line id="Line_4-17" data-name="Line 4" class="cls-3" x2="10.274" y2="14.953" transform="translate(227.744 259.077)"/>
    </g>
    <g id="rectangle-18" data-name="rectangle" transform="translate(906.849 89.018) rotate(24)">
      <path id="Path_1-18" data-name="Path 1" class="cls-2" d="M50.007.5h99.511l-50,89.872H.5Z" transform="translate(161.439 204.516)"/>
      <path id="Path_2-18" data-name="Path 2" class="cls-2" d="M50.007.5h99.511l-50,89.872H.5Z" transform="translate(149 186)"/>
      <line id="Line_1-18" data-name="Line 1" class="cls-3" x2="12.439" y2="18.516" transform="translate(149.5 276.372)"/>
      <line id="Line_2-18" data-name="Line 2" class="cls-3" x2="12.439" y2="18.516" transform="translate(199.256 186.5)"/>
      <line id="Line_3-18" data-name="Line 3" class="cls-3" x2="12.439" y2="18.516" transform="translate(298.767 186.5)"/>
      <line id="Line_4-18" data-name="Line 4" class="cls-3" x2="12.936" y2="18.516" transform="translate(248.016 276.372)"/>
    </g>
    <g id="rectangle-19" data-name="rectangle" transform="matrix(0.998, 0.07, -0.07, 0.998, 560.392, 229.134)">
      <path id="Path_1-19" data-name="Path 1" class="cls-2" d="M24.464.5H72.634L48.429,35.194H.5Z" transform="translate(155.021 193.148)"/>
      <path id="Path_2-19" data-name="Path 2" class="cls-2" d="M24.464.5H72.634L48.429,35.194H.5Z" transform="translate(149 186)"/>
      <line id="Line_1-19" data-name="Line 1" class="cls-3" x2="6.021" y2="7.148" transform="translate(149.5 221.194)"/>
      <line id="Line_2-19" data-name="Line 2" class="cls-3" x2="6.021" y2="7.148" transform="translate(173.585 186.5)"/>
      <line id="Line_3-19" data-name="Line 3" class="cls-3" x2="6.021" y2="7.148" transform="translate(221.754 186.5)"/>
      <line id="Line_4-19" data-name="Line 4" class="cls-3" x2="6.262" y2="7.148" transform="translate(197.188 221.194)"/>
    </g>
  </g>
</svg>
